<?xml version="1.0" standalone="no"?>
<!DOCTYPE svg PUBLIC "-//W3C//DTD SVG 20010904//EN"
 "http://www.w3.org/TR/2001/REC-SVG-20010904/DTD/svg10.dtd">
<svg version="1.0" xmlns="http://www.w3.org/2000/svg"
 width="73.000000pt" height="73.000000pt" viewBox="0 0 73.000000 73.000000"
 preserveAspectRatio="xMidYMid meet">
<metadata>
Created by potrace 1.11, written by Peter Selinger 2001-2013
</metadata>
<g transform="translate(0.000000,73.000000) scale(0.100000,-0.100000)"
fill="#000000" stroke="none">
<path d="M222 442 c-1 -188 -3 -216 -18 -233 -21 -23 -57 -24 -94 -3 -27 16
-29 16 -69 -12 -22 -16 -41 -32 -41 -35 0 -12 47 -49 80 -63 38 -15 120 -15
160 2 36 15 77 62 87 102 6 19 9 74 9 123 -1 108 7 99 54 -57 l35 -117 49 3
50 3 47 155 c54 174 50 179 51 -73 1 -116 3 -139 17 -145 18 -8 63 -8 77 1 10
6 11 543 1 553 -10 10 -119 10 -132 -1 -6 -5 -33 -88 -60 -182 -27 -95 -50
-171 -52 -169 -2 2 -26 81 -53 176 -27 95 -52 175 -55 178 -3 3 -36 6 -73 7
l-69 1 -1 -214z"/>
</g>
</svg>
